<svg id="Calque_1" data-name="Calque 1" xmlns="http://www.w3.org/2000/svg" viewBox="0 0 174.47 280.5"><defs><style>.cls-1,.cls-2,.cls-3{fill:none;}.cls-1,.cls-3{stroke:#ffc548;}.cls-1,.cls-2,.cls-3,.cls-5{stroke-miterlimit:40;}.cls-1{stroke-width:32px;}.cls-2,.cls-5{stroke:#220728;}.cls-2,.cls-3{stroke-width:10px;}.cls-4{fill:#220728;}.cls-5{fill:#fff;stroke-width:6px;}.cls-6{font-size:56.81px;font-family:Arial-BoldMT, Arial;font-weight:700;}</style></defs><circle class="cls-1" cx="87.31" cy="68.02" r="8.72"/><path class="cls-2" d="M851.74,411.36a14.83,14.83,0,0,1,14.83,14.83h0A14.83,14.83,0,0,1,851.74,441H840.4L835.17,462" transform="translate(-729.53 -366)"/><path class="cls-2" d="M798.53,462,793.29,441H782a14.83,14.83,0,0,1-14.83-14.83h0A14.83,14.83,0,0,1,782,411.36" transform="translate(-729.53 -366)"/><path class="cls-2" d="M775.77,489v-8.72a17.44,17.44,0,0,1,17.44-17.45h47.11a17.45,17.45,0,0,1,17.45,17.45V489" transform="translate(-729.53 -366)"/><path class="cls-2" d="M878.27,366v36.64a8.72,8.72,0,0,1-8.73,8.72H764.64a8.72,8.72,0,0,1-8.72-8.72V366" transform="translate(-729.53 -366)"/><line class="cls-3" y1="10.47" x2="52.34" y2="10.47"/><line class="cls-3" x1="122.13" y1="10.47" x2="174.47" y2="10.47"/><path class="cls-4" d="M823.79,465.21c-.06,14.84-.24,29.7-.78,44.53-.5,13.74-1.4,27.87-6,41-2,5.75-4.79,11.82-9.58,15.78-.74.62.32,1.67,1.06,1.06,4.06-3.36,6.67-8.21,8.66-13a85.55,85.55,0,0,0,5.15-19.33c2.3-14.56,2.37-29.42,2.65-44.13q.24-12.93.3-25.86a.75.75,0,0,0-1.5,0Z" transform="translate(-729.53 -366)"/><circle class="cls-5" cx="57.97" cy="229.5" r="48"/><text class="cls-6" transform="translate(40.93 249.8)">1</text></svg>