<svg id="Calque_1" data-name="Calque 1" xmlns="http://www.w3.org/2000/svg" viewBox="0 0 289.26 392"><defs><style>.cls-1{fill:#66757f;}.cls-2{fill:#a0041e;}.cls-3{fill:#f4900c;}.cls-4{fill:#ffac33;}.cls-5{fill:#292f33;}.cls-6{fill:#99aab5;}.cls-7{fill:#88c9f9;}.cls-8{fill:#f4abba;}.cls-9{fill:#dd2e44;}.cls-10{fill:#fff;stroke:#000;stroke-miterlimit:10;}.cls-11{font-size:69.24px;font-family:Arial-BoldMT, Arial;font-weight:700;}</style></defs><path d="M980.17,470.19l-11.46,40.88c-1.79,6.37-3.5,12.76-5.39,19.1a75.58,75.58,0,0,1-6.07,15.39,31.88,31.88,0,0,1-10.75,11.7A41,41,0,0,1,931,562.54c-10.64,1.66-21.49.72-32.13,2.41s-21.73,6-27.19,15.89c-.93,1.69,1.66,3.21,2.59,1.51,4.85-8.77,14.6-12.59,24-14.27,10.69-1.92,21.63-1,32.37-2.47A47.19,47.19,0,0,0,946,561a33.18,33.18,0,0,0,12-11c6.52-9.7,9-21.77,12.08-32.85L983.06,471a1.5,1.5,0,0,0-2.89-.8Z" transform="translate(-818 -299)"/><path class="cls-1" d="M982,474.31a2.68,2.68,0,0,1-2.4-1.49l-57.8-117.18a2.67,2.67,0,1,1,4.79-2.37l57.8,117.18a2.67,2.67,0,0,1-1.2,3.58A2.74,2.74,0,0,1,982,474.31Z" transform="translate(-818 -299)"/><path class="cls-1" d="M982,474.31a2.68,2.68,0,0,1-2.56-1.91L939.86,339.58a2.68,2.68,0,0,1,5.09-1.67.57.57,0,0,0,0,.14l39.56,132.82a2.68,2.68,0,0,1-1.79,3.33,2.88,2.88,0,0,1-.78.11Z" transform="translate(-818 -299)"/><path class="cls-1" d="M982,474.31a2.67,2.67,0,0,1-2.66-2.46L967.43,322.6a2.68,2.68,0,0,1,5.33-.42l11.89,149.24a2.68,2.68,0,0,1-2.45,2.88Z" transform="translate(-818 -299)"/><path class="cls-1" d="M982,474.31a2.67,2.67,0,0,1-1.38-5L1092.56,402a2.67,2.67,0,1,1,2.76,4.58h0L983.37,473.93a2.81,2.81,0,0,1-1.38.38Z" transform="translate(-818 -299)"/><path class="cls-1" d="M982,474.31a2.67,2.67,0,0,1-1.74-4.7l105-90.4a2.68,2.68,0,0,1,3.49,4.06l-105,90.39a2.65,2.65,0,0,1-1.75.65Z" transform="translate(-818 -299)"/><path class="cls-1" d="M982,474.31a2.69,2.69,0,0,1-2.12-4.3l90.63-119.16a2.68,2.68,0,0,1,4.26,3.23L984.12,473.25a2.69,2.69,0,0,1-2.14,1.06Z" transform="translate(-818 -299)"/><path class="cls-2" d="M1095.57,407.45s-16.56-19.56-83.27-39.13-91.21-12.06-91.21-12.06-9-83.47,109.08-48.85S1095.57,407.45,1095.57,407.45Z" transform="translate(-818 -299)"/><path class="cls-3" d="M1002.54,456.34c-.51-2.27-2.61-2.77-3.38-1s-1.14,7.23-1.14,7.23a42,42,0,0,0-3.5-7.31l-.16-.25a4.72,4.72,0,0,0-.84-.89l-.11-.07a15.46,15.46,0,0,0-5.51-2.58,15.29,15.29,0,0,0-6-.81h-.13a4.65,4.65,0,0,0-1.18.3,2.36,2.36,0,0,0-.28.12,41.63,41.63,0,0,0-6.89,4.26s2.66-4.83,2.94-6.7-1.74-2.59-3.4-1-6,10.92-5.39,13.06,4.2,1.23,6.49.52l1.05-.34a19.46,19.46,0,0,0-.11,7c-4.72,10.65-4.32,20.31-2.19,20.94,3.29,1,6.06-12.56,7.68-12.09s-2.79,13.12.49,14.09c2.13.62,7.14-7.06,8.91-18.58a19,19,0,0,0,3.71-6l.71.86c1.54,1.83,4,4.53,5.74,3.07s3-11.62,2.52-13.9Z" transform="translate(-818 -299)"/><path class="cls-4" d="M995.78,450c-.93,3.16-4.54,8-9.38,6.56s-5.26-7.42-4.34-10.58,2.72-9.28,9.58-7.28S996.7,446.87,995.78,450Z" transform="translate(-818 -299)"/><path class="cls-5" d="M991.79,438.22c-9.22-2.7-12.42,6.12-10.82,8.79s3.41.22,7.8,1.51,4.59,4.34,7.37,3,4.87-10.54-4.35-13.25Z" transform="translate(-818 -299)"/><path class="cls-6" d="M996.49,450.73a4,4,0,1,1-7.71-2.27c.62-2.13,2.51-2.19,4.65-1.56S997.11,448.6,996.49,450.73Z" transform="translate(-818 -299)"/><path class="cls-7" d="M995.07,450.53a2.6,2.6,0,1,1-5-1.46c.4-1.37,1.62-1.42,3-1s2.39,1.1,2,2.47Z" transform="translate(-818 -299)"/><path class="cls-6" d="M988.78,448.47a4,4,0,1,1-7.71-2.27h0c.62-2.13,2.51-2.19,4.65-1.56s3.69,1.7,3.06,3.83Z" transform="translate(-818 -299)"/><path class="cls-7" d="M987.36,448.27a2.6,2.6,0,1,1-5-1.46c.4-1.37,1.62-1.42,3-1S987.76,446.9,987.36,448.27Z" transform="translate(-818 -299)"/><path class="cls-4" d="M988.11,473.3l-12.18-3.58a1.41,1.41,0,0,1,.8-2.7h0l12.17,3.57a1.41,1.41,0,1,1-.79,2.71Z" transform="translate(-818 -299)"/><path class="cls-8" d="M956.4,356.19c6,.72,12.8,1.79,20.54,3.33l.42-60.44A79.9,79.9,0,0,0,956.78,302Zm90.34,23.8q9.71,3.78,19.09,8.29l29-45.81a79.94,79.94,0,0,0-15.73-13.6Z" transform="translate(-818 -299)"/><path class="cls-9" d="M1046.72,380,1079,328.87c-11.54-7.79-27.34-15.14-48.89-21.46s-38.82-8.68-52.73-8.35L977,359.53c10.17,2,21.83,4.84,35.29,8.78q17.47,5.08,34.44,11.68Z" transform="translate(-818 -299)"/><circle class="cls-10" cx="55" cy="337" r="54.5"/><text class="cls-11" transform="translate(33.84 356.36)">2</text></svg>