<svg id="Calque_1" data-name="Calque 1" xmlns="http://www.w3.org/2000/svg" viewBox="0 0 601 154"><defs><style>.cls-1{fill:#aebcc3;}.cls-2{fill:#e8447a;}.cls-3{fill:#f5bb1d;}.cls-4{fill:#455963;}.cls-5{fill:#631536;}.cls-6{fill:#fff;stroke:#000;stroke-miterlimit:10;}.cls-7{font-size:55.06px;font-family:Arial-BoldMT, Arial;font-weight:700;}</style></defs><path d="M819.2,694.28c19.55,2.34,39.11,4.64,58.71,6.61s39.14,3.59,58.77,4.56,39.05,1.29,58.56.63a493,493,0,0,0,57.93-5.24,381.74,381.74,0,0,0,56.49-13q3.54-1.11,7-2.3c1.82-.61,1-3.51-.79-2.89a373.43,373.43,0,0,1-56.29,14.08,468.64,468.64,0,0,1-57.54,6c-19.49.9-39,.77-58.5,0-19.63-.82-39.23-2.32-58.78-4.2s-39-4.13-58.51-6.44l-7.09-.85c-1.92-.23-1.9,2.78,0,3Z" transform="translate(-730 -601)"/><path class="cls-1" d="M1276.88,657.68c21.44,0,40.56,8.55,53,21.86" transform="translate(-730 -601)"/><path class="cls-2" d="M1090,704.67a17.19,17.19,0,0,0,15.06,8.56h208.75c9.5,0,17.19-7.37,17.19-16.47v-4.64h-9.71A4.18,4.18,0,0,1,1317,688V668.9s-25.74-11.75-39.91-11.86h-14.22c-14.27-30.61-41.91-56-78.29-56s-75.08,56.38-75.08,56.38h-4.48c-9.44,0-14.94,7.28-14.94,16.28" transform="translate(-730 -601)"/><path class="cls-3" d="M1089.85,696.2h3.72a10.34,10.34,0,0,0,10.59-10.1h0v-4.65a10.35,10.35,0,0,0-10.59-10.1h-3.38" transform="translate(-730 -601)"/><path class="cls-4" d="M1115.4,704.58c0,14.25,12.12,25.8,27.07,25.8s27.08-11.55,27.08-25.79h0c0-14.25-12.11-25.8-27.07-25.81s-27.08,11.55-27.08,25.8Z" transform="translate(-730 -601)"/><path class="cls-1" d="M1131,704.58a11.39,11.39,0,0,0,22.75,0h0a11.39,11.39,0,0,0-22.75,0Z" transform="translate(-730 -601)"/><path class="cls-4" d="M1246.19,704.58c0,14.25,12.11,25.82,27.07,25.82s27.08-11.55,27.09-25.8v0c0-14.26-12.12-25.82-27.07-25.83s-27.08,11.55-27.09,25.81Z" transform="translate(-730 -601)"/><path class="cls-1" d="M1262,704.58a11.39,11.39,0,1,0,11.37-10.85A11.12,11.12,0,0,0,1262,704.58Z" transform="translate(-730 -601)"/><path class="cls-3" d="M1330,679.59h0A69.25,69.25,0,0,0,1317,668.94v19.11a4.2,4.2,0,0,0,4.31,4.07H1331v-11.3Z" transform="translate(-730 -601)"/><path class="cls-5" d="M1180.79,611.58c-27.91,1.69-50.9,20.44-57.64,45.46h57.64ZM1191.35,657H1249c-11-23.11-31.17-42.48-57.65-45.25V657Z" transform="translate(-730 -601)"/><circle class="cls-6" cx="59" cy="95" r="58.5"/><text class="cls-7" transform="translate(42.19 112.09)">3</text></svg>